<mxfile host="app.diagrams.net" modified="2024-06-04T17:30:13.544Z" agent="Mozilla/5.0 (Windows NT 10.0; Win64; x64) AppleWebKit/537.36 (KHTML, like Gecko) Chrome/125.0.0.0 Safari/537.36" etag="Kpc3A96xwj4_Uj08bSwN" version="24.4.13" type="device">
  <diagram name="Page-1" id="gmI050Jw-MdomiQU2jJ7">
    <mxGraphModel dx="1709" dy="893" grid="1" gridSize="10" guides="1" tooltips="1" connect="1" arrows="1" fold="1" page="1" pageScale="1" pageWidth="850" pageHeight="1100" math="0" shadow="0">
      <root>
        <mxCell id="0" />
        <mxCell id="1" parent="0" />
        <mxCell id="wVjqgBGjRInh9hbpIkDU-11" value="" style="edgeStyle=orthogonalEdgeStyle;rounded=0;orthogonalLoop=1;jettySize=auto;html=1;" parent="1" source="wVjqgBGjRInh9hbpIkDU-1" target="wVjqgBGjRInh9hbpIkDU-10" edge="1">
          <mxGeometry relative="1" as="geometry">
            <Array as="points">
              <mxPoint x="500" y="160" />
              <mxPoint x="500" y="160" />
            </Array>
          </mxGeometry>
        </mxCell>
        <mxCell id="wVjqgBGjRInh9hbpIkDU-14" value="Crypto Data" style="edgeLabel;html=1;align=center;verticalAlign=middle;resizable=0;points=[];" parent="wVjqgBGjRInh9hbpIkDU-11" vertex="1" connectable="0">
          <mxGeometry x="-0.3326" y="-2" relative="1" as="geometry">
            <mxPoint as="offset" />
          </mxGeometry>
        </mxCell>
        <mxCell id="wVjqgBGjRInh9hbpIkDU-3" value="" style="edgeStyle=orthogonalEdgeStyle;rounded=0;orthogonalLoop=1;jettySize=auto;html=1;" parent="1" edge="1">
          <mxGeometry relative="1" as="geometry">
            <mxPoint x="230" y="210" as="sourcePoint" />
            <mxPoint x="233.80000000000018" y="300" as="targetPoint" />
            <Array as="points">
              <mxPoint x="230" y="211" />
              <mxPoint x="234" y="211" />
            </Array>
          </mxGeometry>
        </mxCell>
        <mxCell id="wVjqgBGjRInh9hbpIkDU-16" value="Data" style="edgeLabel;html=1;align=center;verticalAlign=middle;resizable=0;points=[];" parent="wVjqgBGjRInh9hbpIkDU-3" vertex="1" connectable="0">
          <mxGeometry x="0.0514" y="-4" relative="1" as="geometry">
            <mxPoint as="offset" />
          </mxGeometry>
        </mxCell>
        <mxCell id="wVjqgBGjRInh9hbpIkDU-1" value="&lt;b&gt;Dashboard&lt;/b&gt;&lt;div&gt;(Responsive webpage showing widgets)&lt;/div&gt;" style="rounded=1;whiteSpace=wrap;html=1;" parent="1" vertex="1">
          <mxGeometry x="170" y="70" width="135" height="140" as="geometry" />
        </mxCell>
        <mxCell id="wVjqgBGjRInh9hbpIkDU-7" value="" style="edgeStyle=orthogonalEdgeStyle;rounded=0;orthogonalLoop=1;jettySize=auto;html=1;" parent="1" source="wVjqgBGjRInh9hbpIkDU-2" target="wVjqgBGjRInh9hbpIkDU-6" edge="1">
          <mxGeometry relative="1" as="geometry" />
        </mxCell>
        <mxCell id="wVjqgBGjRInh9hbpIkDU-29" value="Data" style="edgeLabel;html=1;align=center;verticalAlign=middle;resizable=0;points=[];" parent="wVjqgBGjRInh9hbpIkDU-7" vertex="1" connectable="0">
          <mxGeometry x="-0.1086" y="-4" relative="1" as="geometry">
            <mxPoint as="offset" />
          </mxGeometry>
        </mxCell>
        <mxCell id="wVjqgBGjRInh9hbpIkDU-2" value="&lt;b&gt;DataTable-Wrapper Component&lt;/b&gt;&lt;div&gt;&amp;nbsp;(React Datatable Wrapper Component)&lt;/div&gt;" style="whiteSpace=wrap;html=1;rounded=1;" parent="1" vertex="1">
          <mxGeometry x="112.5" y="300" width="257.5" height="120" as="geometry" />
        </mxCell>
        <mxCell id="wVjqgBGjRInh9hbpIkDU-6" value="&lt;b&gt;DataTable Component&lt;/b&gt;&lt;div&gt;&lt;span style=&quot;background-color: initial;&quot;&gt;(Actual React Component)&lt;/span&gt;&lt;br&gt;&lt;/div&gt;&lt;div&gt;&lt;br&gt;&lt;/div&gt;" style="whiteSpace=wrap;html=1;rounded=1;" parent="1" vertex="1">
          <mxGeometry x="133.75" y="520" width="215" height="75" as="geometry" />
        </mxCell>
        <mxCell id="wVjqgBGjRInh9hbpIkDU-10" value="&lt;b&gt;Crypto Data Provider Service&lt;/b&gt;&lt;div&gt;(Getting data from Coinbase API over Websocket Connection)&lt;/div&gt;" style="shape=process;whiteSpace=wrap;html=1;backgroundOutline=1;rounded=1;" parent="1" vertex="1">
          <mxGeometry x="610" y="60" width="235" height="140" as="geometry" />
        </mxCell>
        <mxCell id="wVjqgBGjRInh9hbpIkDU-19" value="" style="endArrow=classic;html=1;rounded=0;exitX=0;exitY=0.5;exitDx=0;exitDy=0;" parent="1" source="wVjqgBGjRInh9hbpIkDU-6" edge="1">
          <mxGeometry width="50" height="50" relative="1" as="geometry">
            <mxPoint x="-20" y="540" as="sourcePoint" />
            <mxPoint x="110" y="400" as="targetPoint" />
            <Array as="points">
              <mxPoint x="70" y="558" />
              <mxPoint x="70" y="480" />
              <mxPoint x="70" y="400" />
            </Array>
          </mxGeometry>
        </mxCell>
        <mxCell id="wVjqgBGjRInh9hbpIkDU-20" value="Remove Item" style="edgeLabel;html=1;align=center;verticalAlign=middle;resizable=0;points=[];" parent="wVjqgBGjRInh9hbpIkDU-19" vertex="1" connectable="0">
          <mxGeometry x="0.0895" y="4" relative="1" as="geometry">
            <mxPoint x="4" y="-9" as="offset" />
          </mxGeometry>
        </mxCell>
        <mxCell id="wVjqgBGjRInh9hbpIkDU-21" value="" style="endArrow=classic;html=1;rounded=0;exitX=0;exitY=0.5;exitDx=0;exitDy=0;entryX=0;entryY=0.643;entryDx=0;entryDy=0;entryPerimeter=0;" parent="1" target="wVjqgBGjRInh9hbpIkDU-1" edge="1">
          <mxGeometry width="50" height="50" relative="1" as="geometry">
            <mxPoint x="114" y="318" as="sourcePoint" />
            <mxPoint x="90" y="160" as="targetPoint" />
            <Array as="points">
              <mxPoint x="70" y="320" />
              <mxPoint x="70" y="160" />
            </Array>
          </mxGeometry>
        </mxCell>
        <mxCell id="wVjqgBGjRInh9hbpIkDU-22" value="Remove Item" style="edgeLabel;html=1;align=center;verticalAlign=middle;resizable=0;points=[];" parent="wVjqgBGjRInh9hbpIkDU-21" vertex="1" connectable="0">
          <mxGeometry x="0.0895" y="4" relative="1" as="geometry">
            <mxPoint as="offset" />
          </mxGeometry>
        </mxCell>
        <mxCell id="wVjqgBGjRInh9hbpIkDU-25" value="" style="edgeStyle=orthogonalEdgeStyle;rounded=0;orthogonalLoop=1;jettySize=auto;html=1;exitX=1;exitY=0.25;exitDx=0;exitDy=0;" parent="1" source="wVjqgBGjRInh9hbpIkDU-1" edge="1">
          <mxGeometry relative="1" as="geometry">
            <mxPoint x="415" y="100" as="sourcePoint" />
            <mxPoint x="610" y="100" as="targetPoint" />
            <Array as="points">
              <mxPoint x="305" y="100" />
            </Array>
          </mxGeometry>
        </mxCell>
        <mxCell id="wVjqgBGjRInh9hbpIkDU-28" value="Remove Item: Reset Connection with new list" style="edgeLabel;html=1;align=center;verticalAlign=middle;resizable=0;points=[];" parent="wVjqgBGjRInh9hbpIkDU-25" vertex="1" connectable="0">
          <mxGeometry x="-0.1143" y="-2" relative="1" as="geometry">
            <mxPoint as="offset" />
          </mxGeometry>
        </mxCell>
        <mxCell id="wVjqgBGjRInh9hbpIkDU-30" value="" style="edgeStyle=orthogonalEdgeStyle;rounded=0;orthogonalLoop=1;jettySize=auto;html=1;" parent="1" edge="1">
          <mxGeometry relative="1" as="geometry">
            <mxPoint x="610" y="180" as="sourcePoint" />
            <mxPoint x="305" y="180" as="targetPoint" />
            <Array as="points">
              <mxPoint x="500" y="180" />
              <mxPoint x="500" y="180" />
            </Array>
          </mxGeometry>
        </mxCell>
        <mxCell id="wVjqgBGjRInh9hbpIkDU-31" value="Crypto Data" style="edgeLabel;html=1;align=center;verticalAlign=middle;resizable=0;points=[];" parent="wVjqgBGjRInh9hbpIkDU-30" vertex="1" connectable="0">
          <mxGeometry x="-0.3326" y="-2" relative="1" as="geometry">
            <mxPoint as="offset" />
          </mxGeometry>
        </mxCell>
      </root>
    </mxGraphModel>
  </diagram>
</mxfile>
